<svg xmlns="http://www.w3.org/2000/svg" width="640" height="400" class="rounded-lg overflow-hidden"><rect width="100%" height="100%" fill="#051726"/><rect width="4.655" height="92.143" x="270.575" y="153.928" fill="#fff" class="rect-r-0" data-fill-palette-color="primary" data-palette-color="#ffffff" rx=".582%"/><path fill="#81ffd9" d="M255.2 226.433c-8.734-7.21-18.161-12.616-23.014-15.112-.554 1.248-5.684 12.894-8.873 17.885-.138.138-.416.138-.416 0-.693-1.941-3.188-8.873-7.07-8.319-.278 0-.416-.277-.278-.416 2.912-2.357 10.399-8.318 13.171-11.646v-8.04c1.387-2.358 2.219-4.714 2.496-6.933.97-.138 2.218-1.386 3.605-6.239 1.802-6.377 0-7.486-1.664-7.486 4.02-18.717-6.378-18.855-6.378-18.855-.831-3.882-6.516-8.041-11.645-6.932-5.269.97-15.944-.139-15.944-.139-.139 2.218 1.802 3.882 1.802 3.882-9.427 5.684-7.21 18.44-6.377 22.044-1.664 0-3.328 1.248-1.525 7.486 1.386 4.853 2.634 6.24 3.604 6.24.278 2.218 1.248 4.574 2.496 6.931v8.041c2.773 3.328 10.26 9.29 13.17 11.646.278.139 0 .555-.277.416-3.881-.416-6.377 6.378-7.07 8.319-.139.277-.416.277-.416 0-3.189-4.991-8.319-16.637-8.873-17.885-2.357 1.248-5.823 3.189-9.844 5.684-4.159-2.495-7.348-4.02-8.457-4.575a.762.762 0 0 1-.416-.693v-7.764c1.248-2.08 2.08-4.436 2.357-6.377.832-.14 2.08-1.387 3.328-5.823 1.663-5.962 0-6.932-1.525-6.932 3.743-17.33-5.962-17.47-5.962-17.47-.832-3.604-5.961-7.347-10.814-6.377-4.852.971-14.696-.138-14.696-.138-.138 2.08 1.664 3.604 1.664 3.604-8.734 5.269-6.655 17.053-5.962 20.38-1.525 0-3.05 1.11-1.386 6.933 1.248 4.436 2.495 5.684 3.327 5.823.278 2.08 1.11 4.297 2.357 6.377v7.764a.762.762 0 0 1-.416.693c-2.357 1.11-13.586 6.793-24.123 15.528-1.941 1.525-2.912 3.882-2.912 6.239v11.645H258.39v-12.477a9.13 9.13 0 0 0-3.188-6.932z" data-fill-palette-color="accent" style="stroke-width:1.38641"/><path fill="#fff" d="M323.768 205.775h-20.279q-6.145 0-9.656-1.755-3.512-1.756-4.951-5.268-1.457-3.511-1.457-8.69v-20.279q0-5.091 1.404-8.568 1.405-3.458 4.916-5.267 3.512-1.79 9.744-1.79h20.279q6.145 0 9.62 1.79 3.46 1.809 4.917 5.267 1.44 3.477 1.44 8.568v20.279q0 7.725-3.424 11.728-3.424 3.985-12.553 3.985zm-17.733-8.427h15.275q3.248 0 5.056-1.668 1.79-1.668 1.79-4.565V168.73q0-2.546-1.843-4.354-1.843-1.791-5.003-1.791h-15.275q-3.16 0-5.092 1.668-1.93 1.668-1.93 4.477v22.385q0 2.985 1.895 4.6 1.879 1.633 5.127 1.633zm54.954 8.427h-13.344l1.756-3.511 15.187-16.24-16.943-19.577h13.344l10.71 13.607h.877l10.886-13.607h13.343l-1.405 2.81-16.064 16.767 17.469 19.751h-13.431l-10.798-13.168h-.878zm79.972 0h-20.278q-5.882 0-9.183-1.668-3.283-1.668-4.74-4.213-1.44-2.546-1.756-5.18-.298-2.633-.298-4.565v-20.278q0-1.756.298-4.39.316-2.633 1.72-5.231 1.405-2.581 4.689-4.337 3.3-1.755 9.27-1.755h16.24q6.847 0 10.359.526 3.511.527 4.863 1.141 1.37.615 1.72.966l-1.58 6.672q-1.14-.176-8.603-.527-7.461-.351-20.541-.351-4.126 0-5.496 1.966-1.352 1.984-1.352 4.267v5.706q1.054-.176 4.829-.44 3.774-.263 11.06-.263h8.691q6.32 0 9.78 1.58 3.476 1.58 4.828 4.741 1.37 3.16 1.37 7.9v2.107q0 2.634-.405 5.39-.386 2.775-1.878 5.057-1.493 2.282-4.706 3.722-3.195 1.457-8.901 1.457zm-17.82-8.427h15.274q2.897 0 4.337-.93 1.457-.914 1.984-2.37.527-1.44.527-2.933v-4.214q0-2.37-1.142-3.862-1.14-1.492-4.916-1.492h-22.912v9.656q0 2.546 1.528 4.337 1.545 1.808 5.32 1.808zm78.638 8.427H481.85q-7.461 0-10.797-.79-3.336-.79-4.302-1.843l3.424-6.76q1.405.176 4.653.44 3.248.263 9.182.385 5.917.14 15.31.14 2.809 0 4.266-.965 1.44-.965 2.02-2.423.56-1.44.56-2.844v-5.706q-.79.088-4.248.386-3.476.316-10.762.316h-9.569q-8.866 0-12.413-3.74-3.564-3.721-3.564-11.359v-1.229q0-2.633.404-5.407.386-2.757 1.879-5.04 1.492-2.282 4.74-3.739 3.248-1.44 8.866-1.44h20.279q5.97 0 9.217 1.668 3.248 1.668 4.705 4.214 1.44 2.546 1.756 5.18.299 2.633.299 4.564v20.279q0 1.755-.299 4.389-.316 2.634-1.72 5.214-1.405 2.599-4.688 4.355-3.3 1.755-9.27 1.755zm-17.645-27.389h22.034v-9.656q0-2.458-1.615-4.302-1.633-1.843-5.232-1.843h-15.187q-4.038 0-5.478 2.019-1.457 2.019-1.457 4.126v3.336q0 2.984 1.317 4.652 1.316 1.668 5.618 1.668z" class="wordmark-text-0" data-fill-palette-color="primary" style="stroke-width:1.75571"/><path fill="#81ffd9" d="M298.93 245.842h-11.514v-27.881h9.024l1.556.747q1.805-.311 4.082-.535 2.266-.212 4.88-.212h3.36q1.805 0 3.486.46 1.68.474 2.489 1.345 1.058-.56 2.303-.971 1.244-.398 3.211-.622 1.954-.212 5.004-.212h3.112q3.111 0 4.792.871 1.68.872 2.402 2.179.71 1.306.871 2.65.15 1.333.15 2.266v19.915h-11.39v-17.55q0-2.49-2.987-2.49h-3.485q-.996 0-1.37.25-.372.249-.372 1.12v18.67h-11.576v-17.55q0-2.49-2.988-2.49h-3.174q-1.182 0-1.518.212-.349.224-.349 1.158zm69.143 0h-13.256q-4.108 0-6.323-1.182-2.203-1.182-3.013-3.274-.809-2.078-.809-4.817v-9.397q0-2.49.834-4.58.847-2.08 3.025-3.361 2.178-1.27 6.286-1.27H367.7q4.854 0 7.43 1.145 2.59 1.158 3.548 3.236.97 2.091.97 4.83v7.966h-10.89q-5.602 0-8.502-.249-2.888-.249-4.07-.311v.933q-.062 2.49 2.987 2.49h1.93q4.978 0 9.21-.224 4.232-.212 6.286-.399l3.734 5.913q0 .622-1.058 1.182-1.058.56-3.709.959-2.639.41-7.493.41zm-11.887-17.55v.871h11.95v-.87q0-1.246-.225-1.744-.211-.497-1.332-.622-1.12-.124-3.796-.124h-3.61q-2.987 0-2.987 2.49zm41.884 17.55h-11.513v-27.881h9.024l2.49 1.245q2.613-.498 6.31-.872 3.71-.373 6.946-.373h3.111q3.112 0 4.793.871 1.68.872 2.39 2.179.721 1.306.87 2.65.162 1.333.162 2.266v19.915h-11.389v-17.55q0-2.49-2.987-2.49h-8.34q-1.182 0-1.53.212-.337.224-.337 1.158z" class="slogan-text-1" data-fill-palette-color="secondary" style="stroke-width:1.24471"/></svg>

