<svg xmlns="http://www.w3.org/2000/svg" viewBox="0 0 420 420"><rect width="86.84%" height="86.84%" x="27.63" y="27.63" fill="#051726"/><path fill="#81ffd9" d="M395.58 273.31c-24.98-20.62-51.94-36.08-65.82-43.22-1.59 3.57-16.26 36.88-25.38 51.15-.4.4-1.2.4-1.2 0-1.97-5.55-9.11-25.38-20.21-23.79-.8 0-1.2-.8-.8-1.19 8.33-6.74 29.74-23.8 37.67-33.31v-23c3.97-6.74 6.35-13.48 7.14-19.83 2.78-.4 6.35-3.96 10.31-17.84 5.16-18.24 0-21.41-4.76-21.41 11.5-53.54-18.24-53.94-18.24-53.94-2.38-11.1-18.64-23-33.3-19.82-15.08 2.77-45.61-.4-45.61-.4-.4 6.34 5.15 11.1 5.15 11.1-26.96 16.26-20.62 52.75-18.24 63.05-4.76 0-9.52 3.57-4.36 21.42 3.97 13.88 7.54 17.84 10.31 17.84.8 6.35 3.57 13.09 7.14 19.83v23c7.93 9.52 29.35 26.57 37.67 33.31.8.4 0 1.59-.8 1.19-11.1-1.19-18.23 18.24-20.22 23.8-.4.79-1.19.79-1.19 0-9.12-14.28-23.79-47.6-25.37-51.16a488 488 0 0 0-28.16 16.26c-11.9-7.14-21.02-11.5-24.19-13.09a2.18 2.18 0 0 1-1.19-1.98v-22.2c3.57-5.96 5.95-12.7 6.74-18.25 2.38-.4 5.95-3.97 9.52-16.65 4.76-17.06 0-19.83-4.36-19.83 10.7-49.57-17.05-49.97-17.05-49.97-2.38-10.3-17.05-21.02-30.94-18.24-13.87 2.78-42.03-.4-42.03-.4-.4 5.95 4.76 10.31 4.76 10.31-24.98 15.07-19.04 48.78-17.05 58.3-4.37 0-8.73 3.17-3.97 19.83 3.57 12.68 7.14 16.25 9.52 16.65.8 5.95 3.17 12.3 6.74 18.24v22.2a2.18 2.18 0 0 1-1.19 1.99c-6.74 3.17-38.86 19.43-69 44.41-5.55 4.37-8.33 11.1-8.33 17.85v33.3h389.42v-35.68a26.11 26.11 0 0 0-9.12-19.83z" data-fill-palette-color="accent"/><path fill="#051726" d="M251.47 324.95h-14.33q-4.34 0-6.82-1.24-2.48-1.24-3.5-3.72-1.02-2.48-1.02-6.13v-14.33q0-3.6.99-6.05 1-2.44 3.47-3.72 2.48-1.26 6.88-1.26h14.33q4.34 0 6.79 1.26 2.44 1.28 3.47 3.72 1.02 2.46 1.02 6.05v14.33q0 5.45-2.42 8.28-2.42 2.81-8.86 2.81zM238.94 319h10.79q2.3 0 3.57-1.18 1.27-1.17 1.27-3.22v-15.81q0-1.8-1.3-3.07-1.3-1.27-3.54-1.27h-10.79q-2.23 0-3.6 1.18-1.36 1.18-1.36 3.16v15.81q0 2.1 1.34 3.25 1.33 1.15 3.62 1.15zm38.81 5.95h-9.42l1.24-2.48L280.3 311l-11.97-13.82h9.42l7.57 9.6h.62l7.69-9.6h9.42l-1 1.98L290.72 311l12.34 13.95h-9.49l-7.62-9.3h-.62zm56.49 0H319.9q-4.15 0-6.48-1.17-2.32-1.18-3.35-2.98-1.02-1.8-1.24-3.66-.21-1.86-.21-3.22V299.6q0-1.24.21-3.1.22-1.86 1.22-3.7.99-1.82 3.3-3.06 2.34-1.24 6.55-1.24h11.47q4.84 0 7.32.37 2.48.37 3.43.8.97.44 1.22.69l-1.12 4.71q-.8-.12-6.07-.37-5.27-.25-14.51-.25-2.91 0-3.88 1.39-.96 1.4-.96 3.01v4.03q.75-.12 3.41-.3 2.67-.2 7.82-.2h6.13q4.47 0 6.91 1.12 2.46 1.12 3.41 3.35.97 2.23.97 5.58v1.49q0 1.86-.29 3.8-.27 1.96-1.32 3.58-1.06 1.6-3.33 2.62-2.25 1.03-6.28 1.03zM321.65 319h10.79q2.04 0 3.06-.65 1.03-.65 1.4-1.68.37-1.02.37-2.07v-2.98q0-1.67-.8-2.72-.8-1.06-3.47-1.06h-16.2v6.82q0 1.8 1.08 3.07 1.1 1.27 3.76 1.27zm55.54 5.95h-14.08q-5.27 0-7.62-.55-2.36-.56-3.04-1.3l2.42-4.78q1 .12 3.29.31t6.48.27q4.18.1 10.81.1 1.99 0 3.02-.68 1.01-.68 1.42-1.71.4-1.02.4-2.01v-4.03l-3 .27q-2.46.23-7.6.23h-6.76q-6.26 0-8.77-2.65-2.52-2.62-2.52-8.02v-.87q0-1.86.29-3.81.27-1.95 1.33-3.56 1.05-1.62 3.34-2.65 2.3-1.01 6.27-1.01h14.32q4.22 0 6.5 1.18 2.3 1.17 3.33 2.97 1.02 1.8 1.24 3.66.21 1.86.21 3.22v14.33q0 1.24-.2 3.1-.23 1.86-1.22 3.68-1 1.83-3.31 3.07-2.33 1.24-6.55 1.24zm-12.46-19.34h15.56v-6.82q0-1.74-1.14-3.04-1.15-1.3-3.7-1.3h-10.72q-2.85 0-3.87 1.43-1.03 1.42-1.03 2.91v2.36q0 2.1.93 3.28.93 1.18 3.97 1.18z" class="wordmark-text-0" data-fill-palette-color="primary"/><path fill="#81ffd9" d="M233.92 353.25h-8.13v-19.69h6.37l1.1.53q1.28-.22 2.89-.38 1.6-.15 3.44-.15h2.38q1.27 0 2.46.33t1.76.95q.74-.4 1.62-.69.88-.28 2.27-.44 1.38-.15 3.54-.15h2.2q2.19 0 3.38.62 1.18.61 1.7 1.53.5.93.6 1.88.12.94.12 1.6v14.06h-8.05v-12.4q0-1.75-2.1-1.75H249q-.7 0-.97.17-.26.18-.26.8v13.18h-8.18v-12.4q0-1.75-2.1-1.75h-2.25q-.83 0-1.07.15-.25.16-.25.82zm48.84 0h-9.37q-2.9 0-4.46-.83-1.56-.84-2.13-2.32-.57-1.46-.57-3.4v-6.63q0-1.76.59-3.24.6-1.47 2.14-2.37 1.53-.9 4.43-.9h9.1q3.43 0 5.25.8 1.83.83 2.5 2.3.7 1.47.7 3.4v5.63h-7.7q-3.96 0-6-.17-2.04-.18-2.88-.22v.66q-.04 1.75 2.11 1.75h1.36q3.52 0 6.5-.15 3-.15 4.45-.29l2.64 4.18q0 .44-.75.84-.75.4-2.62.67-1.86.3-5.3.3zm-8.4-12.4v.62h8.44v-.61q0-.88-.16-1.23-.15-.36-.94-.44-.79-.1-2.68-.1h-2.55q-2.1 0-2.1 1.77zm29.58 12.4h-8.13v-19.69h6.38l1.75.88q1.85-.35 4.46-.62 2.62-.26 4.9-.26h2.2q2.2 0 3.39.62 1.19.61 1.69 1.53.5.93.61 1.88.12.94.12 1.6v14.06h-8.05v-12.4q0-1.75-2.1-1.75h-5.9q-.83 0-1.08.15-.24.16-.24.82z" class="slogan-text-1" data-fill-palette-color="secondary"/></svg>