<?xml version="1.0" encoding="UTF-8" standalone="no"?>
<svg
   width="640"
   height="360"
   class="rounded-lg overflow-hidden"
   version="1.1"
   id="svg4"
   sodipodi:docname="logo.svg"
   inkscape:export-filename="logo.png"
   inkscape:export-xdpi="96"
   inkscape:export-ydpi="96"
   xmlns:inkscape="http://www.inkscape.org/namespaces/inkscape"
   xmlns:sodipodi="http://sodipodi.sourceforge.net/DTD/sodipodi-0.dtd"
   xmlns="http://www.w3.org/2000/svg"
   xmlns:svg="http://www.w3.org/2000/svg">
  <defs
     id="defs4" />
  <sodipodi:namedview
     id="namedview4"
     pagecolor="#ffffff"
     bordercolor="#000000"
     borderopacity="0.25"
     inkscape:showpageshadow="2"
     inkscape:pageopacity="0.0"
     inkscape:pagecheckerboard="0"
     inkscape:deskcolor="#d1d1d1" />
  <rect
     width="100%"
     height="100%"
     fill="#051726"
     id="rect1"
     x="0"
     y="0" />
  <g
     id="g4"
     transform="translate(5e-4,-19.999493)">
    <rect
       width="4.6550002"
       height="92.142998"
       x="270.57501"
       y="153.92799"
       fill="#ffffff"
       class="rect-r-0"
       data-fill-palette-color="primary"
       data-palette-color="#ffffff"
       rx="0.58200002%"
       id="rect2" />
    <path
       fill="#81ffd9"
       d="m 255.2,226.433 c -8.734,-7.21 -18.161,-12.616 -23.014,-15.112 -0.554,1.248 -5.684,12.894 -8.873,17.885 -0.138,0.138 -0.416,0.138 -0.416,0 -0.693,-1.941 -3.188,-8.873 -7.07,-8.319 -0.278,0 -0.416,-0.277 -0.278,-0.416 2.912,-2.357 10.399,-8.318 13.171,-11.646 v -8.04 c 1.387,-2.358 2.219,-4.714 2.496,-6.933 0.97,-0.138 2.218,-1.386 3.605,-6.239 1.802,-6.377 0,-7.486 -1.664,-7.486 4.02,-18.717 -6.378,-18.855 -6.378,-18.855 -0.831,-3.882 -6.516,-8.041 -11.645,-6.932 -5.269,0.97 -15.944,-0.139 -15.944,-0.139 -0.139,2.218 1.802,3.882 1.802,3.882 -9.427,5.684 -7.21,18.44 -6.377,22.044 -1.664,0 -3.328,1.248 -1.525,7.486 1.386,4.853 2.634,6.24 3.604,6.24 0.278,2.218 1.248,4.574 2.496,6.931 v 8.041 c 2.773,3.328 10.26,9.29 13.17,11.646 0.278,0.139 0,0.555 -0.277,0.416 -3.881,-0.416 -6.377,6.378 -7.07,8.319 -0.139,0.277 -0.416,0.277 -0.416,0 -3.189,-4.991 -8.319,-16.637 -8.873,-17.885 -2.357,1.248 -5.823,3.189 -9.844,5.684 -4.159,-2.495 -7.348,-4.02 -8.457,-4.575 a 0.762,0.762 0 0 1 -0.416,-0.693 v -7.764 c 1.248,-2.08 2.08,-4.436 2.357,-6.377 0.832,-0.14 2.08,-1.387 3.328,-5.823 1.663,-5.962 0,-6.932 -1.525,-6.932 3.743,-17.33 -5.962,-17.47 -5.962,-17.47 -0.832,-3.604 -5.961,-7.347 -10.814,-6.377 -4.852,0.971 -14.696,-0.138 -14.696,-0.138 -0.138,2.08 1.664,3.604 1.664,3.604 -8.734,5.269 -6.655,17.053 -5.962,20.38 -1.525,0 -3.05,1.11 -1.386,6.933 1.248,4.436 2.495,5.684 3.327,5.823 0.278,2.08 1.11,4.297 2.357,6.377 v 7.764 a 0.762,0.762 0 0 1 -0.416,0.693 c -2.357,1.11 -13.586,6.793 -24.123,15.528 -1.941,1.525 -2.912,3.882 -2.912,6.239 v 11.645 H 258.39 v -12.477 a 9.13,9.13 0 0 0 -3.188,-6.932 z"
       data-fill-palette-color="accent"
       style="stroke-width:1.38641"
       id="path2" />
    <path
       fill="#ffffff"
       d="m 323.768,205.775 h -20.279 q -6.145,0 -9.656,-1.755 -3.512,-1.756 -4.951,-5.268 -1.457,-3.511 -1.457,-8.69 v -20.279 q 0,-5.091 1.404,-8.568 1.405,-3.458 4.916,-5.267 3.512,-1.79 9.744,-1.79 h 20.279 q 6.145,0 9.62,1.79 3.46,1.809 4.917,5.267 1.44,3.477 1.44,8.568 v 20.279 q 0,7.725 -3.424,11.728 -3.424,3.985 -12.553,3.985 z m -17.733,-8.427 h 15.275 q 3.248,0 5.056,-1.668 1.79,-1.668 1.79,-4.565 V 168.73 q 0,-2.546 -1.843,-4.354 -1.843,-1.791 -5.003,-1.791 h -15.275 q -3.16,0 -5.092,1.668 -1.93,1.668 -1.93,4.477 v 22.385 q 0,2.985 1.895,4.6 1.879,1.633 5.127,1.633 z m 54.954,8.427 h -13.344 l 1.756,-3.511 15.187,-16.24 -16.943,-19.577 h 13.344 l 10.71,13.607 h 0.877 l 10.886,-13.607 h 13.343 l -1.405,2.81 -16.064,16.767 17.469,19.751 h -13.431 l -10.798,-13.168 h -0.878 z m 79.972,0 h -20.278 q -5.882,0 -9.183,-1.668 -3.283,-1.668 -4.74,-4.213 -1.44,-2.546 -1.756,-5.18 -0.298,-2.633 -0.298,-4.565 v -20.278 q 0,-1.756 0.298,-4.39 0.316,-2.633 1.72,-5.231 1.405,-2.581 4.689,-4.337 3.3,-1.755 9.27,-1.755 h 16.24 q 6.847,0 10.359,0.526 3.511,0.527 4.863,1.141 1.37,0.615 1.72,0.966 l -1.58,6.672 q -1.14,-0.176 -8.603,-0.527 -7.461,-0.351 -20.541,-0.351 -4.126,0 -5.496,1.966 -1.352,1.984 -1.352,4.267 v 5.706 q 1.054,-0.176 4.829,-0.44 3.774,-0.263 11.06,-0.263 h 8.691 q 6.32,0 9.78,1.58 3.476,1.58 4.828,4.741 1.37,3.16 1.37,7.9 v 2.107 q 0,2.634 -0.405,5.39 -0.386,2.775 -1.878,5.057 -1.493,2.282 -4.706,3.722 -3.195,1.457 -8.901,1.457 z m -17.82,-8.427 h 15.274 q 2.897,0 4.337,-0.93 1.457,-0.914 1.984,-2.37 0.527,-1.44 0.527,-2.933 v -4.214 q 0,-2.37 -1.142,-3.862 -1.14,-1.492 -4.916,-1.492 h -22.912 v 9.656 q 0,2.546 1.528,4.337 1.545,1.808 5.32,1.808 z m 78.638,8.427 H 481.85 q -7.461,0 -10.797,-0.79 -3.336,-0.79 -4.302,-1.843 l 3.424,-6.76 q 1.405,0.176 4.653,0.44 3.248,0.263 9.182,0.385 5.917,0.14 15.31,0.14 2.809,0 4.266,-0.965 1.44,-0.965 2.02,-2.423 0.56,-1.44 0.56,-2.844 v -5.706 q -0.79,0.088 -4.248,0.386 -3.476,0.316 -10.762,0.316 h -9.569 q -8.866,0 -12.413,-3.74 -3.564,-3.721 -3.564,-11.359 v -1.229 q 0,-2.633 0.404,-5.407 0.386,-2.757 1.879,-5.04 1.492,-2.282 4.74,-3.739 3.248,-1.44 8.866,-1.44 h 20.279 q 5.97,0 9.217,1.668 3.248,1.668 4.705,4.214 1.44,2.546 1.756,5.18 0.299,2.633 0.299,4.564 v 20.279 q 0,1.755 -0.299,4.389 -0.316,2.634 -1.72,5.214 -1.405,2.599 -4.688,4.355 -3.3,1.755 -9.27,1.755 z m -17.645,-27.389 h 22.034 v -9.656 q 0,-2.458 -1.615,-4.302 -1.633,-1.843 -5.232,-1.843 h -15.187 q -4.038,0 -5.478,2.019 -1.457,2.019 -1.457,4.126 v 3.336 q 0,2.984 1.317,4.652 1.316,1.668 5.618,1.668 z"
       class="wordmark-text-0"
       data-fill-palette-color="primary"
       style="stroke-width:1.75571"
       id="path3" />
    <path
       fill="#81ffd9"
       d="m 298.93,245.842 h -11.514 v -27.881 h 9.024 l 1.556,0.747 q 1.805,-0.311 4.082,-0.535 2.266,-0.212 4.88,-0.212 h 3.36 q 1.805,0 3.486,0.46 1.68,0.474 2.489,1.345 1.058,-0.56 2.303,-0.971 1.244,-0.398 3.211,-0.622 1.954,-0.212 5.004,-0.212 h 3.112 q 3.111,0 4.792,0.871 1.68,0.872 2.402,2.179 0.71,1.306 0.871,2.65 0.15,1.333 0.15,2.266 v 19.915 h -11.39 v -17.55 q 0,-2.49 -2.987,-2.49 h -3.485 q -0.996,0 -1.37,0.25 -0.372,0.249 -0.372,1.12 v 18.67 h -11.576 v -17.55 q 0,-2.49 -2.988,-2.49 h -3.174 q -1.182,0 -1.518,0.212 -0.349,0.224 -0.349,1.158 z m 69.143,0 h -13.256 q -4.108,0 -6.323,-1.182 -2.203,-1.182 -3.013,-3.274 -0.809,-2.078 -0.809,-4.817 v -9.397 q 0,-2.49 0.834,-4.58 0.847,-2.08 3.025,-3.361 2.178,-1.27 6.286,-1.27 H 367.7 q 4.854,0 7.43,1.145 2.59,1.158 3.548,3.236 0.97,2.091 0.97,4.83 v 7.966 h -10.89 q -5.602,0 -8.502,-0.249 -2.888,-0.249 -4.07,-0.311 v 0.933 q -0.062,2.49 2.987,2.49 h 1.93 q 4.978,0 9.21,-0.224 4.232,-0.212 6.286,-0.399 l 3.734,5.913 q 0,0.622 -1.058,1.182 -1.058,0.56 -3.709,0.959 -2.639,0.41 -7.493,0.41 z m -11.887,-17.55 v 0.871 h 11.95 v -0.87 q 0,-1.246 -0.225,-1.744 -0.211,-0.497 -1.332,-0.622 -1.12,-0.124 -3.796,-0.124 h -3.61 q -2.987,0 -2.987,2.49 z m 41.884,17.55 h -11.513 v -27.881 h 9.024 l 2.49,1.245 q 2.613,-0.498 6.31,-0.872 3.71,-0.373 6.946,-0.373 h 3.111 q 3.112,0 4.793,0.871 1.68,0.872 2.39,2.179 0.721,1.306 0.87,2.65 0.162,1.333 0.162,2.266 v 19.915 h -11.389 v -17.55 q 0,-2.49 -2.987,-2.49 h -8.34 q -1.182,0 -1.53,0.212 -0.337,0.224 -0.337,1.158 z"
       class="slogan-text-1"
       data-fill-palette-color="secondary"
       style="stroke-width:1.24471"
       id="path4" />
  </g>
</svg>
